HIERARCHY
ROOT Hips
{
	OFFSET -0.179506 -22.333345 2.821913
	CHANNELS 6 Xposition Yposition Zposition Zrotation Yrotation Xrotation 
	JOINT LeftUpLeg
	{
		OFFSET 6.951974 -9.140623 -0.681533
		CHANNELS 3 Zrotation Yrotation Xrotation
		JOINT LeftLeg
		{
			OFFSET 3.427654 -37.519855 -0.449580
			CHANNELS 3 Zrotation Yrotation Xrotation
			JOINT LeftFoot
			{
				OFFSET -1.359570 -39.796059 -4.369333
				CHANNELS 3 Zrotation Yrotation Xrotation
				JOINT LeftToe
				{
					OFFSET 2.635814 -5.579078 11.928840
					CHANNELS 3 Zrotation Yrotation Xrotation
					End Site
					{
						OFFSET 0.000000 0.000000 0.000000
					}
				}
			}
		}
	}
	JOINT RightUpLeg
	{
		OFFSET -6.767048 -9.052170 -0.431982
		CHANNELS 3 Zrotation Yrotation Xrotation
		JOINT RightLeg
		{
			OFFSET -3.829005 -38.256897 -0.885003
			CHANNELS 3 Zrotation Yrotation Xrotation
			JOINT RightFoot
			{
				OFFSET 1.577377 -39.841461 -4.231180
				CHANNELS 3 Zrotation Yrotation Xrotation
				JOINT RightToe
				{
					OFFSET -2.537174 -4.814398 12.334795
					CHANNELS 3 Zrotation Yrotation Xrotation
					End Site
					{
						OFFSET 0.000000 0.000000 0.000000
					}
				}
			}
		}
	}
	JOINT Spine
	{
		OFFSET -0.253288 10.896323 -2.669631
		CHANNELS 3 Zrotation Yrotation Xrotation
		JOINT Spine1
		{
			OFFSET 0.548704 13.518043 0.109247
			CHANNELS 3 Zrotation Yrotation Xrotation
			JOINT Spine2
			{
				OFFSET 0.145701 5.292222 2.542457
				CHANNELS 3 Zrotation Yrotation Xrotation
				JOINT Neck
				{
					OFFSET -0.277840 21.387037 -4.285703
					CHANNELS 3 Zrotation Yrotation Xrotation
					JOINT Head
					{
						OFFSET 0.515184 6.496960 5.134897
						CHANNELS 3 Zrotation Yrotation Xrotation
						End Site
						{
							OFFSET 0.000000 0.000000 0.000000
						}
					}
				}
				JOINT LeftShoulder
				{
					OFFSET 7.884473 12.174932 -3.408961
					CHANNELS 3 Zrotation Yrotation Xrotation
					JOINT LeftArm
					{
						OFFSET 9.097692 3.046888 -0.886815
						CHANNELS 3 Zrotation Yrotation Xrotation
						JOINT LeftForeArm
						{
							OFFSET 25.961220 -1.277207 -2.745643
							CHANNELS 3 Zrotation Yrotation Xrotation
							JOINT LeftHand
							{
								OFFSET 24.923361 0.898606 -0.117091
								CHANNELS 3 Zrotation Yrotation Xrotation
								End Site
								{
									OFFSET 0.000000 0.000000 0.000000
								}
							}
						}
					}
				}
				JOINT RightShoulder
				{
					OFFSET -8.175920 11.883285 -3.861528
					CHANNELS 3 Zrotation Yrotation Xrotation
					JOINT RightArm
					{
						OFFSET -9.601238 3.255117 -0.914307
						CHANNELS 3 Zrotation Yrotation Xrotation
						JOINT RightForeArm
						{
							OFFSET -25.374195 -1.332924 -2.140099
							CHANNELS 3 Zrotation Yrotation Xrotation
							JOINT RightHand
							{
								OFFSET -25.529810 0.777228 -0.555919
								CHANNELS 3 Zrotation Yrotation Xrotation
								End Site
								{
									OFFSET 0.000000 0.000000 0.000000
								}
							}
						}
					}
				}
			}
		}
	}
}
MOTION
Frames: 17
Frame Time: 0.033333
-0.179506 120.739975 2.821913 -171.072086 78.999976 -174.192558 -3.395693 0.441137 6.953831 -2.447869 -4.024780 3.356175 6.396042 17.122978 -13.908817 0.293442 -0.313698 0.164857 -10.410997 -5.510929 3.120544 -3.155578 1.522849 11.365211 8.941204 -13.018226 4.137775 1.845271 -0.076272 -0.905103 -4.755902 2.229814 4.550558 -0.077912 -0.728322 -3.284841 -0.204358 -0.300040 5.731784 0.312520 0.292102 1.102951 2.084711 5.106659 -1.978290 -14.938837 5.098401 -2.944863 -36.703855 -4.440205 11.589244 -1.311307 -41.355567 10.194487 -2.525760 -6.947182 2.160286 14.549172 -0.889141 -4.859483 36.755121 4.739032 12.332622 -2.610187 27.057948 4.161358 8.120352 2.587327 6.106900 
-0.026561 120.762985 3.075144 -172.672872 79.138829 -175.617306 -3.578414 0.400699 7.031548 -2.391951 -4.109121 3.030490 6.178996 17.198598 -13.706709 0.289039 -0.294552 0.170868 -10.470340 -5.545943 3.480129 -3.302681 1.712594 10.507589 8.792393 -13.223989 3.891285 1.845309 -0.116003 -0.867096 -4.698691 2.279736 4.367996 -0.150698 -0.679868 -3.292622 -0.275403 -0.232147 5.603842 0.292361 0.391607 0.995658 2.068520 5.194921 -1.819325 -14.876644 5.082523 -3.000365 -36.496982 -4.315309 11.728478 -1.636192 -40.873405 10.455062 -2.884913 -6.952555 2.136495 14.515463 -0.898634 -4.676076 36.870108 4.732203 12.593141 -2.181123 27.204194 4.283485 8.425347 2.575015 5.853197 
0.117226 120.779022 3.224914 -173.434970 79.301783 -176.226789 -3.632220 0.387101 7.117062 -2.394241 -4.202754 2.726093 6.062029 17.293051 -13.524899 0.284893 -0.286478 0.181981 -10.484156 -5.538675 3.586453 -3.363769 1.851426 10.108473 8.623131 -13.246689 3.814915 1.831981 -0.122371 -0.832533 -4.624002 2.289909 4.309210 -0.214616 -0.613182 -3.321023 -0.327955 -0.177954 5.525453 0.328293 0.471838 0.909602 2.047697 5.186259 -1.688657 -14.877981 5.190586 -3.046895 -36.292494 -4.160663 11.854345 -1.928846 -40.810559 10.631045 -3.265878 -6.941850 1.774050 14.554813 -0.910536 -4.569981 36.934535 4.737387 12.788572 -1.729690 27.348160 4.394643 8.618035 2.525121 5.436805 
0.270533 120.790939 3.262071 -173.856593 79.463398 -176.568040 -3.680892 0.443651 7.205519 -2.417444 -4.283775 2.596817 5.989436 17.371019 -13.417621 0.263356 -0.280775 0.168522 -10.538887 -5.582822 3.570059 -3.423289 1.766210 10.081675 8.637865 -13.101803 3.762492 1.807283 -0.116632 -0.826927 -4.575506 2.313539 4.290977 -0.273695 -0.562539 -3.379354 -0.333797 -0.115827 5.528211 0.343465 0.509208 0.878752 2.027004 5.268427 -1.636750 -14.927180 5.313502 -3.064718 -36.178659 -4.063046 11.971185 -2.167777 -40.859225 10.791291 -3.217030 -6.960753 1.668000 14.638604 -0.934484 -4.522903 36.956807 4.788509 12.881727 -1.387999 27.264603 4.454494 8.530236 2.506628 5.240655 
0.346800 120.801743 3.267421 -173.471757 79.636169 -176.227626 -3.645254 0.490352 7.380377 -2.376730 -4.445743 2.443747 5.961987 17.563871 -13.356243 0.248249 -0.280208 0.152804 -10.512655 -5.652164 3.651833 -3.417136 1.681919 9.989901 8.754611 -13.002382 3.725702 1.797937 -0.125405 -0.813825 -4.523468 2.321253 4.281777 -0.274799 -0.511635 -3.441867 -0.308776 -0.088889 5.548635 0.392896 0.509467 0.923316 2.020791 5.316675 -1.565813 -14.981399 5.459862 -3.095314 -36.180133 -4.023817 12.045725 -2.336528 -40.930740 10.810291 -3.146246 -6.965900 1.418895 14.733414 -0.922856 -4.540998 36.959989 4.898836 12.955468 -1.046027 27.069840 4.577149 8.388542 2.474295 5.078563 
0.347939 120.812988 3.259016 -173.373302 79.778305 -176.181338 -3.660898 0.507431 7.476639 -2.381878 -4.514278 2.371750 5.918771 17.699263 -13.313745 0.238060 -0.277268 0.150458 -10.532895 -5.704934 3.682998 -3.451559 1.564409 9.938459 8.852490 -12.884991 3.733535 1.778343 -0.115456 -0.810083 -4.477155 2.354214 4.282324 -0.276370 -0.477564 -3.473132 -0.309158 -0.052019 5.541888 0.444277 0.528308 0.974194 2.050701 5.415735 -1.567539 -15.048620 5.514316 -3.172726 -36.174068 -4.030884 12.146501 -2.511566 -40.954007 10.867795 -3.143750 -6.956985 1.210750 14.818689 -0.925314 -4.547203 36.944455 4.986305 13.014406 -0.769940 26.911582 4.652631 8.317487 2.435028 4.865201 
0.368292 120.825287 3.295924 -173.083603 79.862662 -175.908964 -3.620261 0.499154 7.487414 -2.350808 -4.544900 2.397774 5.896445 17.806515 -13.298767 0.216114 -0.280479 0.150185 -10.506529 -5.806655 3.706807 -3.416135 1.409667 9.864973 8.878639 -12.805079 3.734534 1.781432 -0.103847 -0.819506 -4.388054 2.356726 4.361077 -0.235333 -0.448694 -3.567405 -0.273951 -0.054828 5.543375 0.502314 0.548889 0.950041 2.056842 5.492444 -1.483894 -15.132208 5.573262 -3.215493 -36.217432 -4.020015 12.162219 -2.565465 -40.889077 10.772111 -3.273483 -7.005940 0.931751 14.914338 -0.923686 -4.557244 36.848088 5.009752 13.008610 -0.564578 26.872772 4.681451 8.337009 2.466163 4.587719 
0.332311 120.838699 3.365785 -172.905122 79.932319 -175.754708 -3.586752 0.503203 7.429017 -2.314640 -4.528656 2.491506 5.868947 17.878612 -13.305132 0.203958 -0.280579 0.167062 -10.438760 -5.912774 3.659071 -3.454760 1.230624 9.870504 8.940728 -12.733697 3.659411 1.793774 -0.100363 -0.828936 -4.288407 2.362626 4.446751 -0.200626 -0.395132 -3.662366 -0.225288 -0.068515 5.523795 0.583431 0.605417 0.916305 2.075865 5.547461 -1.418970 -15.178079 5.617667 -3.322565 -36.187267 -4.044123 12.208601 -2.808646 -40.794585 10.872494 -3.534819 -6.942811 0.691415 14.947125 -0.961076 -4.618826 36.728698 4.986561 12.999403 -0.408599 26.954907 4.609777 8.578241 2.447932 4.159487 
0.365586 120.854156 3.469163 -173.211704 79.943920 -175.967165 -3.553774 0.541967 7.274880 -2.348293 -4.350022 2.612428 5.828929 17.775195 -13.274112 0.197089 -0.280454 0.172789 -10.411790 -6.054630 3.559522 -3.498537 0.953329 9.853702 8.939068 -12.678369 3.581793 1.794040 -0.075496 -0.820875 -4.199600 2.357346 4.511881 -0.159725 -0.370075 -3.797917 -0.183405 -0.092986 5.490941 0.668760 0.651777 0.837100 2.089420 5.584728 -1.300974 -15.190788 5.652976 -3.417015 -36.216911 -4.031602 12.213314 -2.946606 -40.489752 10.881518 -4.153677 -6.781932 0.675912 14.941481 -1.027904 -4.695171 36.709982 4.933263 13.018392 -0.340039 27.019430 4.487134 9.146292 2.400684 3.796877 
0.394994 120.872864 3.446394 -173.074836 79.940659 -175.747576 -3.535083 0.627218 7.202093 -2.332993 -4.273555 2.608839 5.724343 17.703054 -13.277352 0.219909 -0.282239 0.147011 -10.383367 -6.234445 3.435718 -3.556429 0.618704 9.913943 9.112405 -12.606626 3.530641 1.839180 -0.088752 -0.789437 -4.106297 2.338323 4.611227 -0.126351 -0.329633 -3.984016 -0.137577 -0.122031 5.454015 0.746528 0.662503 0.844303 2.074001 5.625504 -1.264387 -15.240423 5.758942 -3.499689 -36.268763 -3.971945 12.161547 -3.029503 -40.439306 10.754464 -4.844136 -6.692709 0.406663 14.901469 -1.124874 -4.787625 36.685718 4.811330 13.009864 -0.314633 27.200678 4.330163 9.798023 2.338911 3.342021 
0.514054 120.894836 3.428824 -172.750434 79.870084 -175.265821 -3.437569 0.712438 7.064010 -2.341284 -4.066879 2.680386 5.610143 17.524991 -13.301616 0.242385 -0.266604 0.106404 -10.299022 -6.433500 3.275986 -3.594315 0.144695 10.037597 9.341407 -12.563431 3.405944 1.882643 -0.104757 -0.754951 -4.031870 2.289433 4.669471 -0.048874 -0.307167 -4.171140 -0.085925 -0.177607 5.443915 0.890711 0.718653 0.867583 2.039089 5.693555 -1.246377 -15.176367 5.892154 -3.565061 -36.395531 -3.928543 12.144781 -3.138597 -40.252499 10.784549 -5.752530 -6.431579 0.165135 14.835380 -1.230436 -4.885433 36.828357 4.764213 13.049475 -0.337715 27.310322 4.136619 10.528050 2.230795 2.783486 
0.558698 120.919571 3.352318 -171.829931 79.851291 -174.282491 -3.268822 0.794826 6.903406 -2.388828 -4.007166 2.903582 5.469666 17.431521 -13.406029 0.281992 -0.253952 0.052165 -10.209378 -6.636520 3.025850 -3.573735 -0.388653 10.399486 9.756539 -12.453833 3.206275 1.916274 -0.128762 -0.699781 -3.909224 2.256610 4.721652 0.012065 -0.247992 -4.345498 -0.008509 -0.205110 5.448248 1.025552 0.807565 1.000728 2.002589 5.770100 -1.280323 -15.102614 5.982959 -3.623168 -36.470944 -3.948725 12.118814 -3.332073 -40.243815 10.960875 -6.623538 -6.160473 -0.270464 14.789684 -1.299344 -4.915736 37.001564 4.758718 12.972771 -0.487204 27.363239 3.728062 11.189764 2.107447 2.140456 
0.604424 120.944550 3.232421 -170.282329 79.964903 -172.788277 -3.049101 0.804270 6.677197 -2.496126 -4.039005 3.508379 5.291409 17.571788 -13.658063 0.347123 -0.273586 -0.001962 -10.133871 -6.816161 2.511374 -3.489436 -1.028632 11.392722 10.277713 -12.203387 2.941497 1.948424 -0.165124 -0.661430 -3.729544 2.229483 4.901508 0.070242 -0.098729 -4.575339 0.094465 -0.211876 5.448398 1.125921 0.920226 1.183630 1.985124 5.876438 -1.305126 -14.906750 6.143412 -3.733473 -36.322333 -4.069020 12.012591 -3.499270 -40.721049 11.056122 -7.741575 -5.905186 -0.783949 14.706013 -1.484793 -4.927502 37.011280 4.605577 12.707077 -0.842863 27.645067 2.993773 12.109838 2.008846 1.480077 
0.662547 120.971390 2.914083 -167.126169 80.063231 -169.882733 -2.665770 0.793695 6.441227 -2.675745 -4.308166 4.573410 5.175982 17.914863 -14.058270 0.438824 -0.289727 -0.067070 -9.973048 -6.920310 1.643231 -3.361465 -1.786077 13.387395 10.836170 -11.922103 2.884190 2.027606 -0.199379 -0.601019 -3.545073 2.149692 5.343212 0.223661 0.100175 -4.856447 0.227015 -0.235288 5.573340 1.276486 1.016362 1.480573 1.996586 5.935467 -1.145665 -14.447617 6.315494 -3.882227 -35.491241 -4.501014 11.413405 -3.322901 -41.905016 10.429194 -8.531497 -5.714940 -1.635624 14.590891 -1.711774 -5.020536 36.472046 4.522004 12.002463 -1.523812 27.971156 1.537920 12.641251 1.772642 0.900754 
0.530592 120.999130 2.272133 -162.014110 80.015648 -165.396613 -2.192282 0.753633 6.240347 -2.875891 -4.876846 6.112211 5.023134 18.623571 -14.704026 0.502307 -0.336358 -0.106854 -9.824722 -6.900007 -0.027951 -3.129038 -2.624624 17.347670 11.433423 -11.737424 3.193115 2.071609 -0.246135 -0.604623 -3.354877 2.013505 6.279895 0.493944 0.417993 -5.391557 0.442929 -0.334722 5.775717 1.357969 1.065807 1.826166 2.128019 6.141739 -0.804130 -13.804818 6.614727 -4.123988 -33.438227 -5.061104 10.261506 -2.600029 -44.743673 8.713769 -8.575331 -5.640808 -3.147871 14.522033 -2.094009 -5.287561 34.473173 4.253159 10.622442 -2.684079 28.785860 -0.762236 12.806580 1.533025 0.289557 
0.157835 121.048279 1.228938 -154.017895 79.633506 -158.467400 -1.468841 0.618334 6.195149 -3.086743 -6.153999 7.930929 4.778275 19.983565 -15.481260 0.506407 -0.331466 -0.118330 -9.683309 -6.714604 -2.841166 -2.314631 -3.162611 23.873896 11.313414 -12.781735 3.850421 1.953897 -0.271391 -0.620857 -3.081350 1.680164 7.684600 0.766374 0.907812 -6.213506 0.745662 -0.465152 6.129577 1.621466 0.925904 2.297877 2.425415 6.232515 -0.113369 -12.751573 7.181178 -4.621187 -29.761219 -5.831312 8.313553 -0.534438 -49.319539 5.080747 -8.178212 -5.645589 -5.442845 14.246386 -2.664303 -5.767364 30.613118 3.759581 8.210270 -3.929599 30.313795 -3.507045 12.570915 1.160165 -0.194122 
-1.029343 121.180756 0.273586 -146.119820 78.539199 -152.000424 -0.337216 0.777968 6.254956 -3.169869 -7.780217 9.078442 4.639365 21.154100 -15.847172 0.620534 -0.372055 -0.211552 -9.988922 -6.788445 -7.895371 -0.893997 -4.578489 34.769906 8.252381 -15.653141 1.872149 1.717510 -0.170567 -0.660441 -2.705062 0.999041 9.304129 1.104023 1.551265 -6.896953 0.987224 -0.638473 6.281947 2.061830 0.710481 3.176405 2.936262 5.837375 0.877486 -11.535041 7.669791 -5.232974 -24.532391 -6.628130 5.283130 4.056138 -55.107138 -1.448162 -7.425586 -5.923633 -8.747147 13.940138 -3.151408 -6.141613 25.207379 3.067248 4.624881 -5.560712 31.473851 -6.967407 12.529201 0.918398 -0.203593 
